# xmcd
#
# Track frame offsets: 
#        150
#        3255
#        17187
#        33563
#        51506
#        56201
#        70532
#        97570
#        109529
#        125261
#        128707
#        151192
#        171012
#        188053
#        193275
#        212672
#
# Disc length: 2909 seconds
#
# Revision: 0
# Processed by: cddbd v1.5.2PL0 Copyright (c) Steve Scherf et al.
# Submitted via: ExactAudioCopyFreeDBPlugin 1.0
#
DISCID=cf0b5b10
DTITLE=The McCrary Sisters - Let's Go
DYEAR=2015
DGENRE=Gospel
TTITLE0=Let's Go
TTITLE1=That's Enough
TTITLE2=By The Mark
TTITLE3=I John
TTITLE4=Dr. Watts
TTITLE5=Fire
TTITLE6=Use Me Lord
TTITLE7=Don't You Let Nobody Turn You 'Round
TTITLE8=I Am Free
TTITLE9=Hold On
TTITLE10=Driving Your Mama Crazy
TTITLE11=I'd Rather Have Jesus
TTITLE12=He Split The Rock
TTITLE13=Old Shoes
TTITLE14=Hold The Wind
TTITLE15=Walk In The Light
EXTD=
EXTT0=
EXTT1=
EXTT2=
EXTT3=
EXTT4=
EXTT5=
EXTT6=
EXTT7=
EXTT8=
EXTT9=
EXTT10=
EXTT11=
EXTT12=
EXTT13=
EXTT14=
EXTT15=
PLAYORDER=
